<svg version="1.1" xmlns="http://www.w3.org/2000/svg" viewBox="0 0 872 271" width="872" height="271" class="excalidraw-svg">
  <!-- svg-source:excalidraw -->
  
  <defs>
    <style class="style-fonts">
      @font-face {
        font-family: "Virgil";
        src: url("https://excalidraw.com/Virgil.woff2");
      }
      @font-face {
        font-family: "Cascadia";
        src: url("https://excalidraw.com/Cascadia.woff2");
      }
      @font-face {
        font-family: "Assistant";
        src: url("https://excalidraw.com/Assistant-Regular.woff2");
      }
    </style>
    
  </defs>
  <rect x="0" y="0" width="872" height="271" fill="#ffffff"></rect><g transform="translate(26 26) rotate(0 -8 63.5)" stroke="none"><path fill="#1e1e1e" d="M 5.30,0 Q 5.30,0 5.36,2.01 5.42,4.02 5.56,6.92 5.70,9.82 5.79,13.09 5.89,16.36 5.95,19.95 6.01,23.53 5.71,25.85 5.40,28.17 4.92,32.51 4.45,36.86 3.98,39.25 3.51,41.64 3.01,43.87 2.52,46.11 1.90,50.93 1.28,55.76 0.78,58.44 0.28,61.12 0.02,63.92 -0.24,66.72 -0.35,69.40 -0.46,72.07 -0.81,74.93 -1.16,77.79 -1.28,80.16 -1.40,82.52 -1.49,85.24 -1.57,87.96 -1.57,90.27 -1.56,92.59 -1.56,95.01 -1.55,97.43 -1.84,99.96 -2.12,102.49 -2.50,106.33 -2.89,110.17 -3.82,113.65 -4.76,117.12 -5.75,119.76 -6.75,122.39 -7.92,124.88 -9.09,127.37 -9.55,128.14 -10.01,128.90 -10.52,129.78 -11.04,130.66 -11.80,131.32 -12.57,131.99 -13.50,132.38 -14.44,132.76 -15.45,132.83 -16.47,132.90 -17.45,132.64 -18.43,132.38 -19.27,131.82 -20.12,131.26 -20.74,130.46 -21.37,129.66 -21.70,128.70 -22.04,127.75 -22.05,126.73 -22.06,125.72 -21.75,124.75 -21.44,123.79 -20.84,122.97 -20.23,122.16 -19.40,121.58 -18.57,121.00 -17.59,120.72 -16.62,120.43 -15.61,120.47 -14.59,120.52 -13.65,120.88 -12.70,121.25 -11.92,121.89 -11.14,122.54 -10.60,123.40 -10.07,124.27 -9.84,125.25 -9.61,126.24 -9.71,127.25 -9.80,128.26 -10.22,129.19 -10.63,130.11 -11.32,130.86 -12.01,131.60 -12.90,132.09 -13.79,132.57 -14.79,132.75 -15.79,132.93 -16.79,132.77 -17.79,132.62 -18.70,132.16 -19.60,131.69 -20.30,130.97 -21.01,130.24 -21.45,129.32 -21.89,128.41 -22.01,127.40 -22.13,126.39 -21.92,125.40 -21.72,124.41 -21.72,124.41 -21.72,124.41 -20.37,122.25 -19.01,120.08 -18.14,118.05 -17.27,116.01 -16.12,113.54 -14.96,111.07 -14.19,108.01 -13.41,104.96 -12.91,101.16 -12.40,97.37 -12.38,94.92 -12.35,92.47 -12.30,90.10 -12.24,87.73 -12.22,84.84 -12.19,81.94 -12.03,79.21 -11.88,76.48 -11.59,74.11 -11.29,71.75 -11.24,68.90 -11.19,66.06 -11.08,62.63 -10.96,59.20 -10.57,56.69 -10.18,54.19 -9.89,51.60 -9.60,49.02 -8.92,44.24 -8.23,39.46 -7.53,35.42 -6.83,31.37 -6.42,27.44 -6.01,23.51 -5.95,19.94 -5.89,16.36 -5.79,13.09 -5.70,9.82 -5.56,6.92 -5.42,4.02 -5.36,2.01 -5.30,0 -5.22,-0.63 -5.15,-1.26 -4.92,-1.86 -4.69,-2.46 -4.33,-2.99 -3.97,-3.51 -3.49,-3.94 -3.01,-4.36 -2.44,-4.66 -1.88,-4.96 -1.26,-5.11 -0.63,-5.26 0.00,-5.26 0.63,-5.26 1.26,-5.11 1.88,-4.96 2.44,-4.66 3.01,-4.36 3.49,-3.94 3.97,-3.51 4.33,-2.99 4.69,-2.46 4.92,-1.86 5.15,-1.26 5.22,-0.63 5.30,0.00 5.30,0.00 L 5.30,0 Z"></path></g><g transform="translate(37 14) rotate(0 39.5 27)" stroke="none"><path fill="#1e1e1e" d="M -3.74,-3.74 Q -3.74,-3.74 -2.60,-4.98 -1.45,-6.22 1.94,-7.76 5.34,-9.31 8.30,-9.65 11.26,-10.00 14.69,-10.13 18.12,-10.27 22.04,-8.99 25.96,-7.70 28.50,-6.78 31.04,-5.85 32.95,-4.86 34.87,-3.88 36.91,-2.48 38.94,-1.08 42.40,1.00 45.86,3.09 48.07,5.01 50.28,6.92 52.10,8.43 53.92,9.94 56.12,11.83 58.33,13.72 60.66,15.73 62.99,17.75 65.35,20.32 67.71,22.89 69.95,25.36 72.20,27.82 74.06,29.69 75.93,31.56 77.50,33.36 79.07,35.17 80.59,37.06 82.10,38.96 84.00,41.70 85.89,44.45 87.06,46.76 88.23,49.07 88.19,52.30 88.16,55.52 85.20,58.48 82.24,61.44 79.89,62.24 77.53,63.03 73.87,63.59 70.21,64.16 65.93,64.22 61.64,64.27 57.48,64.25 53.32,64.24 49.80,63.76 46.29,63.28 43.31,62.77 40.34,62.26 37.14,61.36 33.94,60.46 31.09,59.47 28.24,58.48 25.63,57.82 23.02,57.17 20.16,56.23 17.30,55.29 14.89,54.68 12.48,54.08 9.95,53.16 7.41,52.24 4.00,51.18 0.59,50.11 -2.05,49.38 -4.70,48.65 -5.55,48.30 -6.39,47.94 -7.08,47.34 -7.77,46.74 -8.23,45.94 -8.69,45.15 -8.87,44.25 -9.06,43.36 -8.94,42.45 -8.83,41.54 -8.43,40.71 -8.04,39.89 -7.40,39.23 -6.76,38.58 -5.94,38.16 -5.13,37.74 -4.22,37.61 -3.31,37.47 -2.41,37.64 -1.51,37.80 -0.71,38.24 0.09,38.68 0.71,39.35 1.33,40.03 1.70,40.87 2.07,41.70 2.16,42.62 2.24,43.53 2.03,44.42 1.82,45.31 1.34,46.09 0.85,46.87 0.14,47.45 -0.55,48.03 -1.41,48.36 -2.27,48.68 -3.18,48.72 -4.10,48.76 -4.98,48.50 -5.85,48.24 -6.61,47.71 -7.36,47.19 -7.90,46.45 -8.44,45.71 -8.72,44.84 -9.00,43.97 -8.99,43.05 -8.97,42.13 -8.67,41.27 -8.36,40.41 -7.80,39.69 -7.23,38.97 -6.46,38.46 -5.70,37.96 -4.81,37.73 -3.92,37.50 -3.01,37.56 -2.10,37.62 -2.10,37.62 -2.10,37.62 2.70,39.22 7.52,40.82 11.31,42.33 15.09,43.84 17.82,44.54 20.54,45.24 22.99,46.02 25.44,46.79 28.56,47.47 31.67,48.15 34.18,48.95 36.69,49.74 39.34,50.34 41.99,50.94 44.65,51.25 47.32,51.56 50.31,51.65 53.30,51.74 57.40,51.69 61.50,51.64 63.82,51.55 66.15,51.47 69.00,51.34 71.85,51.21 73.98,50.67 76.11,50.13 74.87,47.84 73.62,45.55 71.09,42.21 68.55,38.87 66.68,36.98 64.82,35.09 62.34,32.77 59.87,30.44 57.89,28.51 55.91,26.58 53.44,24.76 50.98,22.94 48.65,21.22 46.33,19.50 44.27,17.93 42.21,16.36 39.12,14.13 36.04,11.90 32.38,9.70 28.72,7.50 26.09,6.30 23.45,5.09 20.74,3.68 18.04,2.27 14.73,2.16 11.43,2.05 8.74,1.83 6.05,1.62 4.90,2.68 3.74,3.74 3.24,4.14 2.74,4.53 2.16,4.79 1.57,5.06 0.94,5.17 0.32,5.29 -0.31,5.25 -0.95,5.21 -1.56,5.02 -2.17,4.83 -2.72,4.50 -3.27,4.17 -3.72,3.72 -4.17,3.26 -4.50,2.72 -4.83,2.17 -5.02,1.56 -5.21,0.95 -5.25,0.31 -5.29,-0.32 -5.17,-0.94 -5.06,-1.57 -4.79,-2.16 -4.53,-2.74 -4.14,-3.24 -3.74,-3.74 -3.74,-3.74 L -3.74,-3.74 Z"></path></g><g transform="translate(88 89) rotate(0 157 49)" stroke="none"><path fill="#1e1e1e" d="M 2.91,4.36 Q 2.91,4.36 1.25,5.53 -0.39,6.69 -1.83,8.85 -3.26,11.01 -4.67,13.40 -6.07,15.79 -8.46,19.36 -10.84,22.94 -12.97,26.21 -15.09,29.49 -15.98,31.71 -16.87,33.93 -16.63,36.52 -16.38,39.10 -16.22,41.43 -16.06,43.76 -17.40,41.98 -18.74,40.20 -17.73,38.25 -16.72,36.30 -16.04,34.09 -15.36,31.88 -14.08,29.18 -12.80,26.48 -11.65,24.60 -10.50,22.72 -8.72,20.72 -6.94,18.73 -5.55,16.84 -4.16,14.95 -5.02,15.45 -5.88,15.95 -5.46,15.18 -5.04,14.40 -4.44,13.75 -3.84,13.11 -3.11,12.62 -2.37,12.13 -1.54,11.84 -0.71,11.54 0.16,11.45 1.03,11.36 1.91,11.48 2.78,11.60 3.60,11.93 4.42,12.26 5.13,12.78 5.85,13.29 6.42,13.96 6.99,14.63 7.39,15.42 7.78,16.21 7.98,17.07 8.17,17.93 8.15,18.81 8.14,19.69 7.91,20.54 7.68,21.39 7.81,19.07 7.94,16.75 8.13,19.71 8.33,22.68 8.33,25.32 8.34,27.95 8.33,30.18 8.32,32.42 8.29,35.13 8.25,37.84 8.69,41.28 9.13,44.72 9.98,47.56 10.83,50.40 8.54,50.55 6.25,50.70 8.40,48.35 10.55,46.00 12.16,43.89 13.77,41.77 15.02,39.74 16.26,37.71 18.67,35.16 21.09,32.61 26.02,32.58 30.96,32.55 32.61,34.87 34.26,37.20 34.35,39.39 34.44,41.58 34.43,43.83 34.42,46.08 35.19,50.02 35.96,53.95 36.27,56.15 36.57,58.34 36.98,60.78 37.39,63.23 38.47,65.53 39.55,67.83 37.40,67.65 35.24,67.47 36.42,64.32 37.61,61.17 38.53,58.90 39.45,56.63 40.40,54.65 41.35,52.68 43.32,48.47 45.28,44.27 46.87,41.92 48.46,39.57 49.57,37.71 50.67,35.86 51.69,33.81 52.70,31.76 54.25,29.33 55.80,26.90 56.89,24.99 57.98,23.07 59.95,20.66 61.92,18.24 64.04,14.83 66.16,11.41 68.53,8.51 70.91,5.61 73.34,2.50 75.76,-0.60 78.44,-2.47 81.11,-4.34 85.36,-4.54 89.61,-4.74 91.51,-2.42 93.41,-0.10 94.39,3.92 95.37,7.95 95.73,10.67 96.09,13.38 96.25,15.94 96.41,18.49 96.42,20.95 96.42,23.40 96.77,27.78 97.12,32.17 97.09,35.01 97.05,37.84 97.01,40.47 96.98,43.10 96.97,45.37 96.97,47.64 96.91,50.33 96.85,53.02 96.85,55.31 96.84,57.61 96.86,59.74 96.87,61.87 96.58,64.10 96.29,66.34 95.46,70.64 94.64,74.94 93.64,77.06 92.65,79.18 90.47,82.55 88.28,85.93 85.91,88.94 83.54,91.95 81.82,93.46 80.10,94.98 77.61,97.38 75.12,99.78 73.17,102.16 71.22,104.54 69.58,105.94 67.94,107.35 65.83,109.37 63.72,111.40 61.71,113.03 59.71,114.67 57.22,116.29 54.73,117.92 52.56,119.15 50.40,120.38 47.71,120.99 45.02,121.61 41.88,121.24 38.74,120.87 36.76,119.66 34.78,118.46 33.94,115.88 33.10,113.29 33.48,110.27 33.86,107.24 34.89,104.85 35.92,102.45 36.92,100.39 37.92,98.33 39.66,95.67 41.41,93.01 43.78,90.50 46.14,88.00 48.00,86.01 49.85,84.02 51.95,82.75 54.04,81.48 57.65,79.92 61.25,78.36 63.33,77.64 65.42,76.93 68.66,76.05 71.90,75.18 74.80,74.25 77.70,73.33 80.18,72.27 82.67,71.22 86.80,69.52 90.93,67.82 93.85,66.07 96.77,64.31 99.38,62.32 101.99,60.34 103.86,58.77 105.72,57.20 107.45,55.61 109.18,54.02 110.98,52.57 112.78,51.11 115.58,48.13 118.38,45.15 120.03,43.10 121.68,41.05 123.35,38.91 125.02,36.77 127.05,34.56 129.08,32.35 130.76,29.20 132.45,26.06 133.90,22.85 135.34,19.65 136.83,15.67 138.32,11.69 138.95,8.01 139.59,4.33 140.09,0.36 140.60,-3.61 141.11,-6.29 141.61,-8.97 141.83,-13.02 142.05,-17.08 142.04,-20.65 142.02,-24.23 141.95,-27.46 141.89,-30.68 141.77,-33.61 141.65,-36.53 141.62,-37.24 141.58,-37.95 141.68,-38.72 141.77,-39.48 142.04,-40.21 142.32,-40.93 142.76,-41.56 143.20,-42.20 143.77,-42.71 144.35,-43.22 145.04,-43.58 145.72,-43.94 146.47,-44.13 147.22,-44.31 148.00,-44.31 148.77,-44.31 149.52,-44.13 150.27,-43.94 150.95,-43.58 151.64,-43.22 152.22,-42.71 152.80,-42.20 153.23,-41.56 153.67,-40.93 153.95,-40.20 154.22,-39.48 154.31,-38.71 154.41,-37.94 154.01,-35.11 153.61,-32.28 153.25,-29.36 152.90,-26.44 152.40,-24.01 151.90,-21.59 151.37,-19.46 150.85,-17.33 150.28,-13.34 149.70,-9.35 149.20,-6.89 148.69,-4.43 147.77,-1.44 146.85,1.53 146.18,4.22 145.51,6.91 144.89,9.77 144.26,12.64 143.70,15.34 143.14,18.05 142.91,20.61 142.68,23.17 142.62,25.44 142.55,27.71 142.40,30.94 142.24,34.17 142.16,37.28 142.08,40.39 142.07,43.16 142.07,45.92 142.05,48.81 142.03,51.71 142.90,56.90 143.77,62.09 144.38,64.60 144.99,67.11 145.57,69.66 146.14,72.21 147.22,75.16 148.30,78.10 149.56,80.62 150.81,83.15 152.24,84.77 153.66,86.39 156.26,87.11 158.86,87.83 161.14,87.63 163.42,87.43 165.26,86.33 167.11,85.24 169.32,83.62 171.52,81.99 174.17,79.84 176.82,77.68 178.53,74.77 180.23,71.86 182.26,68.48 184.29,65.10 185.37,62.62 186.44,60.13 187.38,57.49 188.31,54.84 189.26,52.31 190.21,49.77 190.72,47.06 191.23,44.35 192.93,42.38 194.62,40.41 192.99,42.06 191.36,43.72 191.61,42.95 191.86,42.19 192.28,41.51 192.71,40.82 193.28,40.26 193.86,39.70 194.56,39.29 195.25,38.89 196.02,38.66 196.79,38.43 197.60,38.39 198.40,38.35 199.19,38.51 199.98,38.66 200.71,39.00 201.44,39.34 202.07,39.85 202.69,40.35 203.18,40.99 203.67,41.63 203.99,42.37 204.31,43.11 204.44,43.90 204.58,44.70 204.52,45.50 204.46,46.30 203.26,49.24 202.06,52.17 201.49,54.31 200.91,56.46 199.41,59.15 197.91,61.84 196.26,64.38 194.61,66.92 192.61,68.67 190.62,70.42 188.48,72.16 186.34,73.89 183.22,75.21 180.11,76.53 177.57,76.82 175.03,77.11 171.22,75.17 167.40,73.23 166.68,70.68 165.97,68.13 165.94,64.91 165.90,61.70 166.49,57.78 167.08,53.87 168.19,51.69 169.30,49.51 172.77,48.06 176.23,46.61 178.70,47.33 181.16,48.05 182.53,49.85 183.90,51.65 184.46,54.03 185.01,56.41 185.81,59.02 186.60,61.63 187.20,64.25 187.80,66.87 188.45,69.07 189.10,71.26 189.89,74.07 190.68,76.89 191.51,79.44 192.35,81.99 193.53,85.70 194.71,89.41 196.03,92.70 197.34,95.99 198.73,99.13 200.11,102.27 201.34,105.50 202.57,108.72 204.04,111.13 205.51,113.53 206.91,116.30 208.31,119.07 209.65,121.09 210.98,123.12 212.21,124.86 213.44,126.61 215.43,128.66 217.43,130.72 219.65,130.88 221.86,131.04 223.45,128.90 225.03,126.77 226.68,123.79 228.32,120.81 229.19,118.64 230.05,116.48 231.13,113.19 232.20,109.90 232.56,107.23 232.91,104.56 233.05,100.54 233.20,96.51 233.28,93.78 233.36,91.05 233.39,88.44 233.42,85.84 233.48,83.01 233.53,80.18 233.59,77.25 233.65,74.33 233.39,71.93 233.13,69.54 232.52,67.37 231.91,65.20 230.42,62.31 228.94,59.42 227.09,57.02 225.25,54.62 223.10,54.50 220.95,54.38 219.46,56.51 217.98,58.64 217.33,61.99 216.68,65.34 216.46,68.08 216.24,70.81 216.36,73.46 216.47,76.10 216.48,79.22 216.49,82.34 217.14,85.03 217.80,87.72 218.47,90.29 219.15,92.87 219.94,95.19 220.74,97.52 222.52,99.49 224.31,101.46 226.10,102.66 227.90,103.87 230.20,104.70 232.51,105.54 235.31,106.52 238.11,107.51 241.47,108.06 244.83,108.61 250.38,109.39 255.93,110.17 259.17,110.43 262.40,110.68 269.05,111.43 275.70,112.18 278.40,112.19 281.10,112.20 285.94,112.50 290.79,112.80 293.73,112.74 296.66,112.69 301.36,112.92 306.05,113.14 311.34,112.30 316.64,111.45 319.17,110.69 321.71,109.94 324.98,108.39 328.25,106.84 329.79,104.96 331.34,103.07 331.22,100.33 331.11,97.59 329.29,96.06 327.47,94.54 324.84,92.74 322.20,90.93 319.51,89.37 316.82,87.80 313.58,85.98 310.35,84.15 307.55,82.31 304.75,80.47 300.27,77.85 295.79,75.23 293.66,74.03 291.54,72.82 288.58,71.34 285.61,69.86 284.85,69.29 284.10,68.72 283.57,67.94 283.03,67.16 282.78,66.25 282.52,65.35 282.56,64.40 282.61,63.46 282.96,62.58 283.30,61.70 283.91,60.98 284.52,60.26 285.32,59.77 286.13,59.28 287.05,59.07 287.97,58.86 288.91,58.96 289.85,59.06 290.71,59.45 291.57,59.84 292.25,60.49 292.94,61.13 293.39,61.96 293.84,62.80 293.99,63.73 294.15,64.66 294.00,65.59 293.85,66.52 293.42,67.36 292.98,68.19 292.30,68.85 291.61,69.50 290.76,69.90 289.90,70.30 288.97,70.41 288.03,70.51 287.11,70.32 286.18,70.12 285.37,69.63 284.56,69.15 283.95,68.44 283.33,67.72 282.98,66.84 282.62,65.97 282.57,65.03 282.51,64.08 282.76,63.17 283.01,62.26 283.53,61.48 284.06,60.69 284.81,60.12 285.56,59.54 286.45,59.24 287.34,58.93 288.29,58.93 289.23,58.92 290.13,59.22 291.02,59.52 291.02,59.52 291.02,59.52 294.04,61.17 297.07,62.82 299.42,64.09 301.78,65.36 304.15,66.68 306.53,68.01 308.74,69.09 310.95,70.16 313.37,71.46 315.78,72.77 318.24,73.92 320.69,75.07 323.54,76.90 326.39,78.74 328.32,79.90 330.24,81.06 332.33,82.72 334.42,84.39 336.49,86.68 338.57,88.98 339.91,90.68 341.25,92.38 342.03,94.88 342.82,97.37 342.63,99.77 342.44,102.17 341.57,105.24 340.70,108.32 339.35,110.16 337.99,111.99 335.05,113.80 332.11,115.62 328.02,116.94 323.92,118.27 320.80,119.01 317.68,119.75 314.41,120.14 311.13,120.54 308.59,120.69 306.05,120.83 301.34,121.05 296.63,121.27 293.69,121.19 290.74,121.11 285.81,121.35 280.88,121.60 278.15,121.48 275.43,121.36 268.66,121.10 261.90,120.85 258.58,120.79 255.25,120.74 249.44,120.79 243.62,120.84 239.83,120.16 236.04,119.47 232.35,118.16 228.66,116.84 225.45,115.40 222.23,113.96 220.36,112.72 218.48,111.48 216.07,108.76 213.65,106.05 212.18,103.53 210.71,101.02 209.78,98.31 208.85,95.59 208.18,93.08 207.51,90.56 206.35,86.68 205.19,82.81 204.99,79.94 204.79,77.07 204.41,73.75 204.03,70.43 204.01,67.25 203.98,64.06 204.84,59.25 205.69,54.43 206.49,52.26 207.28,50.09 208.58,48.11 209.88,46.12 211.73,44.72 213.59,43.31 216.23,42.52 218.87,41.74 221.76,41.97 224.66,42.20 227.21,43.13 229.77,44.05 232.64,46.26 235.52,48.46 236.79,50.22 238.06,51.99 239.14,54.84 240.22,57.69 241.18,60.05 242.14,62.41 242.92,65.40 243.71,68.39 244.02,71.36 244.34,74.33 244.39,77.26 244.44,80.20 244.49,83.04 244.54,85.88 244.55,88.51 244.56,91.14 244.59,93.96 244.62,96.77 244.39,101.18 244.15,105.59 243.87,109.79 243.60,114.00 242.42,117.34 241.24,120.69 240.28,123.38 239.32,126.07 238.33,128.04 237.35,130.00 234.87,133.43 232.40,136.86 230.20,138.89 227.99,140.93 224.58,141.85 221.17,142.78 218.47,142.32 215.77,141.87 212.64,139.87 209.51,137.87 207.30,134.94 205.08,132.00 203.96,130.10 202.84,128.20 201.36,125.72 199.88,123.23 198.72,120.80 197.55,118.37 195.69,115.31 193.82,112.24 192.61,109.36 191.41,106.48 189.77,103.37 188.14,100.25 186.40,96.96 184.66,93.66 182.72,89.97 180.78,86.29 179.68,83.63 178.57,80.97 177.51,78.28 176.45,75.60 174.85,71.00 173.25,66.41 172.74,62.04 172.23,57.68 176.18,58.58 180.13,59.47 179.69,62.53 179.24,65.60 176.89,64.21 174.55,62.82 176.98,62.25 179.41,61.68 181.96,59.51 184.51,57.35 185.58,55.32 186.65,53.30 188.11,50.83 189.57,48.36 190.46,46.04 191.36,43.72 191.61,42.95 191.86,42.19 192.28,41.51 192.71,40.82 193.28,40.26 193.86,39.70 194.56,39.29 195.25,38.89 196.02,38.66 196.79,38.43 197.60,38.39 198.40,38.35 199.19,38.51 199.98,38.66 200.71,39.00 201.44,39.34 202.07,39.85 202.69,40.35 203.18,40.99 203.67,41.63 203.99,42.37 204.31,43.11 204.44,43.90 204.58,44.70 204.52,45.50 204.46,46.30 203.73,49.06 203.01,51.81 202.08,54.52 201.15,57.22 200.13,59.65 199.12,62.07 198.01,64.85 196.90,67.63 195.81,69.64 194.71,71.64 192.67,74.99 190.63,78.34 189.09,81.22 187.55,84.09 185.31,86.49 183.07,88.89 180.14,91.45 177.20,94.01 173.72,96.14 170.23,98.27 165.80,99.37 161.37,100.48 158.98,100.28 156.60,100.07 153.34,99.01 150.09,97.95 148.01,96.74 145.93,95.54 144.11,93.21 142.29,90.88 140.66,87.77 139.03,84.65 138.12,81.56 137.20,78.47 136.73,76.39 136.26,74.31 135.77,71.82 135.27,69.32 134.72,66.72 134.16,64.11 133.32,60.60 132.48,57.09 132.23,54.40 131.97,51.71 131.96,48.80 131.94,45.89 131.95,43.11 131.97,40.34 131.92,37.19 131.87,34.04 131.79,30.66 131.71,27.28 131.84,24.81 131.96,22.34 132.17,19.16 132.39,15.98 132.87,13.30 133.35,10.62 133.82,7.57 134.29,4.53 134.85,1.44 135.40,-1.65 136.01,-4.16 136.62,-6.67 137.31,-11.11 138.00,-15.54 138.69,-19.65 139.37,-23.76 140.02,-27.76 140.66,-31.77 141.12,-34.86 141.58,-37.95 141.68,-38.71 141.77,-39.48 142.04,-40.20 142.32,-40.93 142.76,-41.56 143.20,-42.20 143.77,-42.71 144.35,-43.22 145.04,-43.58 145.72,-43.94 146.47,-44.13 147.22,-44.31 148.00,-44.31 148.77,-44.31 149.52,-44.13 150.27,-43.94 150.95,-43.58 151.64,-43.22 152.22,-42.71 152.80,-42.20 153.23,-41.56 153.67,-40.93 153.95,-40.20 154.22,-39.48 154.31,-38.71 154.41,-37.95 154.37,-37.24 154.34,-36.53 154.22,-33.59 154.09,-30.66 154.01,-27.40 153.93,-24.14 153.81,-20.39 153.70,-16.64 153.60,-14.38 153.50,-12.13 153.28,-9.61 153.06,-7.08 152.36,-2.32 151.65,2.43 150.94,6.36 150.24,10.30 148.91,15.05 147.58,19.80 146.81,22.06 146.04,24.32 144.27,27.92 142.49,31.52 141.37,33.53 140.25,35.54 138.86,37.65 137.47,39.77 135.82,41.70 134.16,43.63 132.58,45.83 131.00,48.03 127.60,52.31 124.21,56.60 120.93,59.75 117.65,62.90 115.88,64.65 114.12,66.40 110.41,69.64 106.71,72.87 103.46,74.97 100.20,77.07 97.81,78.62 95.41,80.16 92.15,81.63 88.89,83.09 85.37,84.60 81.86,86.11 78.76,87.10 75.67,88.10 72.94,88.80 70.21,89.50 67.98,90.43 65.76,91.36 63.47,92.36 61.19,93.37 58.72,95.54 56.24,97.71 54.05,100.14 51.86,102.57 50.75,104.56 49.64,106.56 47.76,108.46 45.88,110.37 43.76,109.24 41.64,108.11 43.88,107.98 46.11,107.84 48.64,106.33 51.18,104.81 53.97,102.60 56.77,100.40 58.33,98.95 59.90,97.50 61.79,95.78 63.69,94.07 66.30,91.25 68.90,88.44 71.57,86.09 74.25,83.74 76.41,81.06 78.58,78.37 80.20,76.09 81.83,73.80 83.02,71.28 84.21,68.76 84.38,66.60 84.55,64.43 84.85,61.02 85.14,57.61 85.13,55.33 85.12,53.04 85.06,50.37 84.99,47.69 84.97,45.45 84.94,43.22 84.86,40.66 84.77,38.10 84.47,33.43 84.16,28.77 83.78,26.25 83.40,23.74 83.17,19.96 82.95,16.18 82.51,12.92 82.06,9.65 81.46,7.12 80.85,4.59 83.54,5.67 86.23,6.75 84.12,8.92 82.01,11.08 80.02,13.46 78.03,15.84 75.90,18.68 73.77,21.52 71.21,25.26 68.66,29.00 67.48,31.19 66.31,33.39 65.23,35.22 64.15,37.04 63.04,39.61 61.93,42.17 60.75,44.41 59.56,46.64 57.62,50.33 55.68,54.01 54.97,56.28 54.25,58.55 53.00,61.74 51.75,64.94 50.16,68.24 48.58,71.53 47.36,73.79 46.15,76.05 44.71,77.69 43.27,79.32 40.83,80.21 38.40,81.10 36.06,80.82 33.72,80.53 31.77,79.34 29.83,78.15 28.01,75.42 26.19,72.69 24.89,69.97 23.58,67.24 23.03,64.42 22.48,61.59 21.99,58.62 21.51,55.65 20.93,53.03 20.34,50.41 19.95,48.29 19.57,46.16 20.77,44.04 21.97,41.92 26.43,42.12 30.88,42.32 29.34,44.59 27.79,46.85 26.62,49.02 25.45,51.20 23.89,53.17 22.34,55.13 20.30,57.24 18.27,59.35 16.69,61.00 15.12,62.66 11.19,63.42 7.25,64.18 4.42,63.03 1.59,61.87 0.09,60.07 -1.39,58.27 -2.23,56.10 -3.07,53.93 -3.74,51.57 -4.42,49.20 -4.90,46.21 -5.38,43.22 -5.81,40.58 -6.25,37.94 -6.29,35.18 -6.32,32.42 -6.33,29.48 -6.33,26.55 -6.18,23.76 -6.02,20.97 -5.95,18.46 -5.88,15.95 -5.46,15.18 -5.04,14.40 -4.44,13.76 -3.84,13.11 -3.11,12.62 -2.37,12.13 -1.54,11.84 -0.71,11.54 0.15,11.45 1.03,11.36 1.90,11.48 2.78,11.60 3.60,11.93 4.41,12.26 5.13,12.77 5.85,13.29 6.42,13.96 6.99,14.63 7.39,15.42 7.78,16.21 7.98,17.07 8.17,17.93 8.15,18.81 8.14,19.69 7.91,20.54 7.68,21.39 7.61,21.83 7.54,22.26 6.48,24.12 5.41,25.99 3.97,27.86 2.52,29.72 1.03,31.47 -0.46,33.22 -1.86,36.10 -3.26,38.98 -4.45,42.24 -5.64,45.49 -6.93,47.83 -8.22,50.17 -9.69,51.71 -11.16,53.26 -13.46,54.08 -15.77,54.89 -18.21,54.69 -20.64,54.49 -23.09,53.31 -25.53,52.13 -27.18,49.64 -28.83,47.15 -29.28,44.69 -29.73,42.23 -29.63,39.94 -29.53,37.65 -29.28,34.99 -29.03,32.32 -27.55,28.21 -26.08,24.11 -24.49,22.34 -22.91,20.57 -21.82,18.48 -20.74,16.39 -18.53,12.98 -16.32,9.57 -15.02,7.89 -13.72,6.20 -11.80,3.94 -9.88,1.68 -8.19,-0.20 -6.50,-2.09 -4.70,-3.23 -2.91,-4.36 -2.34,-4.65 -1.78,-4.93 -1.16,-5.07 -0.54,-5.22 0.08,-5.21 0.71,-5.20 1.32,-5.03 1.94,-4.87 2.49,-4.57 3.05,-4.27 3.51,-3.84 3.98,-3.41 4.33,-2.89 4.68,-2.36 4.90,-1.76 5.11,-1.17 5.18,-0.54 5.24,0.08 5.16,0.71 5.07,1.33 4.84,1.92 4.60,2.51 4.24,3.02 3.87,3.54 3.39,3.95 2.91,4.36 2.91,4.36 L 2.91,4.36 Z"></path></g><g transform="translate(211 57) rotate(0 106 4)" stroke="none"><path fill="#1e1e1e" d="M -2.11,-4.22 Q -2.11,-4.22 -0.43,-5.17 1.24,-6.13 3.81,-7.24 6.37,-8.36 9.84,-8.91 13.31,-9.47 17.37,-9.57 21.44,-9.68 25.26,-9.18 29.08,-8.68 33.23,-7.96 37.37,-7.25 42.09,-6.22 46.82,-5.18 52.11,-4.39 57.40,-3.60 62.92,-2.61 68.43,-1.62 74.41,-0.88 80.38,-0.14 86.17,0.78 91.96,1.72 98.63,2.42 105.30,3.11 112.22,4.01 119.15,4.91 125.15,5.29 131.15,5.67 136.93,6.14 142.70,6.60 148.32,7.10 153.94,7.59 159.20,8.09 164.47,8.59 170.08,8.81 175.69,9.02 180.10,9.11 184.50,9.21 187.81,9.07 191.12,8.93 193.96,8.76 196.80,8.58 199.16,8.40 201.52,8.21 204.62,7.90 207.73,7.58 209.65,7.54 211.57,7.49 212.28,7.61 213.00,7.73 213.65,8.07 214.29,8.41 214.79,8.94 215.29,9.47 215.60,10.13 215.90,10.79 215.98,11.52 216.06,12.24 215.90,12.95 215.75,13.66 215.37,14.29 214.99,14.91 214.44,15.38 213.88,15.85 213.21,16.12 212.53,16.39 211.80,16.43 211.07,16.47 210.37,16.28 209.67,16.08 209.07,15.67 208.47,15.26 208.03,14.68 207.58,14.10 207.35,13.41 207.12,12.72 207.12,11.99 207.12,11.26 207.35,10.57 207.59,9.88 208.03,9.30 208.47,8.72 209.07,8.32 209.68,7.91 210.38,7.71 211.08,7.52 211.81,7.56 212.53,7.60 213.21,7.87 213.89,8.14 214.44,8.61 215.00,9.08 215.37,9.71 215.75,10.33 215.90,11.04 216.06,11.75 215.98,12.48 215.90,13.20 215.59,13.86 215.29,14.52 214.79,15.05 214.29,15.58 213.64,15.92 213.00,16.26 212.28,16.38 211.56,16.50 211.56,16.50 211.56,16.50 209.64,16.45 207.72,16.41 204.61,16.08 201.49,15.76 199.13,15.56 196.77,15.36 193.91,15.15 191.05,14.95 187.72,14.74 184.40,14.52 179.94,14.44 175.49,14.36 169.73,14.15 163.97,13.95 158.73,13.47 153.48,13.00 147.88,12.54 142.28,12.08 136.55,11.66 130.82,11.25 124.64,10.91 118.45,10.57 111.59,9.77 104.73,8.96 97.90,8.36 91.07,7.77 85.38,7.01 79.70,6.25 73.55,5.70 67.40,5.16 61.99,4.49 56.57,3.81 51.04,3.39 45.50,2.97 40.97,2.51 36.45,2.04 32.35,1.95 28.26,1.85 24.88,1.79 21.50,1.73 19.16,1.74 16.82,1.76 13.30,1.72 9.78,1.67 7.71,2.18 5.65,2.68 3.88,3.45 2.11,4.22 1.57,4.41 1.03,4.60 0.47,4.66 -0.09,4.71 -0.65,4.63 -1.21,4.55 -1.74,4.34 -2.27,4.13 -2.73,3.80 -3.19,3.46 -3.56,3.03 -3.93,2.60 -4.18,2.09 -4.44,1.58 -4.56,1.03 -4.69,0.47 -4.68,-0.09 -4.67,-0.66 -4.52,-1.21 -4.37,-1.76 -4.10,-2.25 -3.82,-2.75 -3.44,-3.17 -3.05,-3.59 -2.58,-3.90 -2.10,-4.22 -2.11,-4.22 L -2.11,-4.22 Z"></path></g><g transform="translate(427 101) rotate(0 4.5 74.5)" stroke="none"><path fill="#1e1e1e" d="M 4.54,-2.02 Q 4.54,-2.02 5.70,0.57 6.85,3.16 7.56,5.51 8.26,7.85 9.17,11.83 10.07,15.81 10.32,19.91 10.58,24.01 10.57,26.60 10.57,29.19 10.48,32.30 10.39,35.40 10.33,38.45 10.26,41.49 10.16,44.80 10.05,48.11 9.95,51.53 9.84,54.94 9.80,58.12 9.76,61.30 9.64,64.95 9.51,68.60 9.43,72.16 9.36,75.73 9.24,79.54 9.12,83.36 9.07,86.99 9.02,90.62 9.05,93.89 9.08,97.16 9.17,99.99 9.26,102.82 9.31,105.74 9.37,108.67 9.47,111.06 9.58,113.46 9.24,116.97 8.91,120.48 8.87,122.96 8.83,125.44 8.55,127.92 8.28,130.41 7.87,133.79 7.46,137.16 7.51,140.05 7.57,142.93 7.26,145.52 6.95,148.11 6.93,148.18 6.92,148.25 6.79,148.95 6.66,149.65 6.37,150.29 6.07,150.94 5.63,151.50 5.19,152.06 4.63,152.50 4.07,152.94 3.42,153.23 2.77,153.52 2.07,153.64 1.37,153.77 0.66,153.72 -0.04,153.68 -0.72,153.47 -1.40,153.25 -2.00,152.88 -2.61,152.51 -3.11,152.01 -3.62,151.50 -3.98,150.90 -4.35,150.29 -4.56,149.61 -4.77,148.93 -4.81,148.22 -4.85,147.50 -4.57,145.30 -4.29,143.09 -3.47,140.00 -2.65,136.92 -1.78,134.53 -0.91,132.14 -0.33,130.05 0.24,127.96 0.83,125.41 1.42,122.87 2.13,119.50 2.83,116.13 3.19,115.23 3.56,114.33 4.19,113.60 4.82,112.86 5.65,112.37 6.48,111.87 7.43,111.67 8.37,111.47 9.34,111.58 10.30,111.69 11.18,112.10 12.05,112.51 12.75,113.18 13.45,113.85 13.90,114.71 14.35,115.56 14.50,116.52 14.65,117.48 14.49,118.43 14.33,119.39 13.87,120.24 13.41,121.09 12.71,121.75 12.00,122.42 11.12,122.82 10.24,123.22 9.28,123.32 8.31,123.42 7.37,123.21 6.42,122.99 5.60,122.49 4.77,121.99 4.15,121.25 3.52,120.50 3.17,119.60 2.82,118.70 2.77,117.73 2.72,116.77 2.99,115.84 3.25,114.90 3.80,114.10 4.34,113.31 5.12,112.72 5.89,112.14 6.81,111.84 7.73,111.53 8.70,111.54 9.67,111.54 10.58,111.86 11.50,112.17 12.27,112.76 13.04,113.35 13.57,114.16 14.11,114.96 14.37,115.90 14.62,116.83 14.56,117.80 14.51,118.76 14.51,118.76 14.51,118.76 13.73,121.97 12.95,125.19 12.44,128.10 11.93,131.01 11.28,133.63 10.63,136.25 9.45,140.01 8.27,143.76 7.59,146.00 6.92,148.25 6.79,148.95 6.66,149.65 6.37,150.29 6.07,150.94 5.63,151.50 5.19,152.06 4.63,152.50 4.07,152.93 3.42,153.23 2.77,153.52 2.07,153.64 1.37,153.77 0.66,153.72 -0.04,153.68 -0.72,153.47 -1.40,153.25 -2.00,152.88 -2.61,152.51 -3.11,152.01 -3.62,151.51 -3.98,150.90 -4.35,150.29 -4.56,149.61 -4.77,148.93 -4.81,148.22 -4.85,147.51 -4.67,146.22 -4.49,144.92 -3.87,142.17 -3.26,139.42 -2.76,135.79 -2.26,132.15 -1.36,128.57 -0.47,124.99 -0.26,122.34 -0.06,119.70 0.17,116.58 0.41,113.45 0.52,111.06 0.62,108.67 0.68,105.74 0.73,102.82 0.82,99.99 0.91,97.16 0.94,93.89 0.97,90.62 0.92,86.99 0.87,83.36 0.75,79.54 0.63,75.73 0.56,72.16 0.48,68.60 0.35,64.95 0.23,61.30 0.19,58.12 0.15,54.94 0.04,51.53 -0.06,48.11 -0.16,44.81 -0.27,41.50 -0.34,38.47 -0.41,35.43 -0.52,32.34 -0.62,29.26 -0.64,24.87 -0.67,20.49 -0.76,17.41 -0.85,14.34 -1.55,10.76 -2.25,7.18 -3.40,4.60 -4.54,2.02 -4.72,1.44 -4.89,0.87 -4.93,0.27 -4.96,-0.32 -4.85,-0.91 -4.74,-1.50 -4.49,-2.04 -4.24,-2.59 -3.87,-3.06 -3.50,-3.53 -3.02,-3.90 -2.55,-4.27 -2.00,-4.51 -1.45,-4.75 -0.86,-4.86 -0.27,-4.96 0.32,-4.92 0.92,-4.88 1.49,-4.70 2.06,-4.52 2.57,-4.21 3.08,-3.90 3.50,-3.47 3.93,-3.04 4.23,-2.53 4.54,-2.02 4.54,-2.02 L 4.54,-2.02 Z"></path></g><g transform="translate(442 58) rotate(0 43 68.5)" stroke="none"><path fill="#1e1e1e" d="M 0.99,4.99 Q 0.99,4.99 -0.41,5.36 -1.82,5.74 -2.15,5.90 -2.47,6.06 -3.11,6.11 -3.75,6.16 -4.39,6.05 -5.03,5.95 -5.62,5.69 -6.21,5.44 -6.72,5.05 -7.24,4.66 -7.64,4.16 -8.05,3.66 -8.32,3.07 -8.60,2.49 -8.72,1.86 -8.85,1.22 -8.82,0.58 -8.79,-0.06 -8.61,-0.67 -8.43,-1.29 -8.11,-1.85 -7.78,-2.41 -7.33,-2.87 -6.88,-3.33 -6.34,-3.68 -5.79,-4.02 -5.18,-4.22 -4.57,-4.42 -1.66,-3.33 1.24,-2.23 3.55,-1.70 5.87,-1.18 7.77,-0.14 9.67,0.89 12.39,2.07 15.12,3.25 19.14,4.66 23.17,6.06 25.27,6.69 27.38,7.32 29.91,8.26 32.44,9.20 35.94,9.87 39.44,10.53 41.82,11.41 44.20,12.29 47.09,12.92 49.98,13.55 53.11,14.49 56.25,15.43 58.42,15.94 60.60,16.44 63.76,18.21 66.92,19.98 69.09,23.64 71.26,27.30 70.89,30.68 70.51,34.06 69.06,36.21 67.60,38.35 65.85,40.05 64.10,41.76 62.12,42.90 60.14,44.03 56.80,45.47 53.46,46.91 51.20,47.65 48.93,48.40 44.53,49.83 40.12,51.27 37.95,51.81 35.77,52.35 33.69,52.86 31.62,53.36 28.65,54.68 25.68,55.99 23.60,56.93 21.53,57.86 19.43,58.83 17.34,59.79 19.04,58.50 20.74,57.21 23.43,57.65 26.13,58.08 27.90,59.28 29.66,60.48 33.56,63.19 37.45,65.89 41.39,68.33 45.34,70.77 47.31,71.80 49.28,72.84 52.00,74.77 54.71,76.70 57.05,78.29 59.39,79.87 61.33,81.12 63.28,82.37 66.24,84.51 69.20,86.65 72.85,89.13 76.50,91.61 78.45,93.05 80.41,94.48 82.28,96.07 84.16,97.66 86.47,100.07 88.77,102.47 91.10,106.26 93.43,110.05 94.19,112.41 94.96,114.78 95.82,117.49 96.68,120.20 96.93,122.45 97.18,124.71 96.27,127.99 95.36,131.28 93.93,133.00 92.49,134.73 90.58,136.26 88.66,137.79 86.72,138.89 84.77,139.98 82.55,140.54 80.33,141.11 78.22,141.84 76.10,142.56 73.66,142.95 71.22,143.33 67.22,143.43 63.21,143.53 59.11,143.50 55.00,143.47 50.98,143.43 46.96,143.40 44.67,143.36 42.38,143.31 38.33,143.29 34.27,143.26 31.25,143.31 28.22,143.36 25.92,143.42 23.61,143.48 20.83,143.56 18.06,143.65 15.51,143.29 12.96,142.93 12.15,142.84 11.34,142.74 10.58,142.45 9.81,142.16 9.14,141.70 8.47,141.23 7.93,140.62 7.39,140.01 7.02,139.29 6.64,138.57 6.44,137.78 6.25,136.99 6.25,136.18 6.25,135.36 6.44,134.57 6.64,133.78 7.02,133.06 7.39,132.34 7.93,131.73 8.47,131.12 9.15,130.65 9.82,130.19 10.58,129.90 11.34,129.61 12.15,129.52 12.96,129.42 10.06,131.06 7.16,132.70 7.86,131.87 8.57,131.04 9.50,130.47 10.44,129.90 11.51,129.67 12.57,129.43 13.66,129.54 14.75,129.66 15.74,130.12 16.74,130.57 17.53,131.32 18.33,132.07 18.84,133.04 19.36,134.00 19.53,135.08 19.71,136.16 19.54,137.24 19.36,138.32 18.85,139.29 18.34,140.25 17.55,141.01 16.76,141.76 15.77,142.22 14.78,142.68 13.69,142.80 12.60,142.92 11.54,142.69 10.47,142.46 9.53,141.90 8.59,141.34 7.88,140.50 7.17,139.67 6.77,138.66 6.36,137.64 6.30,136.55 6.24,135.46 6.53,134.41 6.82,133.35 7.43,132.44 8.04,131.54 8.91,130.87 9.78,130.21 10.81,129.86 11.85,129.51 12.94,129.51 14.04,129.50 15.07,129.85 16.11,130.20 16.98,130.86 17.85,131.52 18.47,132.42 19.08,133.33 19.38,134.38 19.67,135.43 19.62,136.52 19.56,137.61 16.26,140.27 12.96,142.93 12.15,142.84 11.34,142.74 10.58,142.45 9.82,142.16 9.15,141.70 8.47,141.23 7.93,140.62 7.39,140.02 7.02,139.29 6.64,138.57 6.44,137.78 6.25,136.99 6.25,136.18 6.25,135.36 6.44,134.57 6.64,133.78 7.02,133.06 7.39,132.34 7.93,131.73 8.47,131.12 9.14,130.65 9.81,130.19 10.58,129.90 11.34,129.61 12.15,129.52 12.96,129.42 15.51,129.88 18.06,130.34 20.83,130.43 23.61,130.51 25.92,130.57 28.22,130.63 31.25,130.68 34.27,130.73 38.33,130.70 42.38,130.67 44.67,130.63 46.95,130.59 50.96,130.54 54.96,130.50 58.98,130.43 62.99,130.35 66.33,130.22 69.67,130.08 72.02,129.54 74.38,128.99 77.26,128.38 80.15,127.77 82.42,125.09 84.68,122.42 84.13,120.18 83.57,117.94 82.32,114.87 81.08,111.80 79.62,109.83 78.17,107.85 76.02,105.57 73.88,103.28 71.97,101.85 70.07,100.42 66.83,97.98 63.59,95.54 60.33,93.75 57.06,91.96 55.18,90.74 53.30,89.51 50.71,87.98 48.12,86.45 45.99,85.10 43.86,83.76 41.20,82.50 38.54,81.23 36.68,80.08 34.83,78.93 30.84,76.52 26.85,74.11 24.67,72.96 22.49,71.82 20.31,70.52 18.12,69.22 15.05,67.01 11.99,64.80 10.41,63.28 8.84,61.77 8.14,59.61 7.43,57.45 7.68,55.30 7.93,53.16 10.62,50.54 13.31,47.92 15.70,46.54 18.10,45.17 21.00,44.11 23.90,43.05 28.19,41.52 32.47,39.98 36.37,38.83 40.27,37.68 44.00,36.16 47.73,34.65 50.76,33.27 53.79,31.90 56.40,30.87 59.01,29.84 57.09,28.87 55.18,27.89 52.51,27.07 49.84,26.24 47.09,25.34 44.34,24.44 42.14,23.94 39.94,23.44 36.52,22.36 33.10,21.28 30.80,20.78 28.51,20.28 26.28,19.52 24.04,18.76 21.70,18.09 19.36,17.42 16.80,16.64 14.24,15.86 10.39,14.27 6.53,12.69 4.50,11.41 2.47,10.13 -0.04,9.35 -2.55,8.57 -4.60,6.81 -6.65,5.06 -4.56,5.56 -2.47,6.06 -3.11,6.11 -3.75,6.16 -4.39,6.05 -5.03,5.95 -5.62,5.69 -6.21,5.44 -6.72,5.05 -7.24,4.66 -7.64,4.16 -8.05,3.66 -8.32,3.07 -8.60,2.49 -8.72,1.86 -8.85,1.22 -8.82,0.58 -8.79,-0.05 -8.61,-0.67 -8.43,-1.29 -8.11,-1.85 -7.78,-2.41 -7.33,-2.87 -6.88,-3.33 -6.34,-3.68 -5.79,-4.02 -5.18,-4.22 -4.57,-4.42 -4.24,-4.51 -3.92,-4.59 -2.45,-4.79 -0.99,-4.99 -0.38,-5.03 0.22,-5.08 0.83,-4.98 1.43,-4.88 1.99,-4.63 2.56,-4.39 3.05,-4.02 3.54,-3.65 3.92,-3.17 4.31,-2.70 4.57,-2.14 4.83,-1.59 4.95,-0.99 5.07,-0.38 5.04,0.22 5.01,0.83 4.84,1.42 4.67,2.01 4.36,2.54 4.05,3.07 3.62,3.51 3.20,3.95 2.68,4.28 2.16,4.60 1.58,4.79 0.99,4.99 0.99,4.99 L 0.99,4.99 Z"></path></g><g transform="translate(531 157) rotate(0 165.5 52)" stroke="none"><path fill="#1e1e1e" d="M 5.29,0 Q 5.29,0 5.30,2.58 5.30,5.17 5.45,8.42 5.59,11.67 5.70,15.00 5.80,18.33 5.88,21.80 5.96,25.27 5.99,29.05 6.02,32.82 6.44,36.62 6.86,40.42 7.36,44.16 7.86,47.90 8.60,50.47 9.34,53.04 9.63,55.36 9.92,57.67 11.03,60.22 12.14,62.76 13.96,64.59 15.78,66.41 18.24,67.85 20.69,69.29 22.84,69.18 24.99,69.06 27.33,66.13 29.66,63.21 31.07,61.13 32.48,59.05 34.14,57.10 35.80,55.15 38.27,51.96 40.75,48.77 42.87,45.41 45.00,42.05 47.02,38.28 49.04,34.52 50.36,31.82 51.68,29.12 53.43,26.94 55.18,24.76 59.86,23.69 64.54,22.62 66.53,25.46 68.52,28.29 68.62,30.70 68.72,33.11 68.39,36.81 68.06,40.51 67.90,43.50 67.73,46.49 67.66,48.62 67.58,50.75 67.22,53.27 66.86,55.79 66.34,59.23 65.82,62.66 65.74,64.88 65.66,67.10 65.58,69.35 65.49,71.59 65.50,74.67 65.51,77.75 65.56,80.07 65.61,82.38 68.09,80.89 70.57,79.41 72.24,77.01 73.91,74.62 75.88,71.95 77.84,69.28 79.13,67.39 80.42,65.50 81.46,63.54 82.50,61.58 83.62,59.46 84.73,57.34 86.35,53.41 87.96,49.48 88.94,47.26 89.92,45.05 91.53,40.86 93.13,36.67 94.76,33.38 96.38,30.09 97.43,27.59 98.47,25.10 100.31,22.53 102.15,19.96 104.48,17.46 106.80,14.96 111.01,14.91 115.21,14.86 117.26,15.87 119.30,16.89 121.74,16.39 124.19,15.90 126.99,15.86 129.80,15.81 133.52,16.89 137.24,17.96 139.84,19.29 142.44,20.63 145.74,22.69 149.03,24.75 151.69,26.43 154.35,28.10 156.62,29.74 158.89,31.38 160.79,33.61 162.70,35.85 163.31,38.16 163.93,40.47 164.01,42.87 164.09,45.27 162.36,49.15 160.63,53.04 158.55,54.88 156.48,56.71 153.53,59.22 150.58,61.73 148.03,63.34 145.48,64.95 142.73,66.96 139.99,68.98 137.66,71.08 135.33,73.18 134.04,75.47 132.74,77.75 131.56,79.75 130.38,81.74 128.76,79.91 127.14,78.07 129.99,78.44 132.84,78.81 135.12,78.81 137.39,78.81 140.66,78.29 143.93,77.76 146.54,77.19 149.15,76.62 151.89,75.79 154.63,74.96 157.43,73.56 160.22,72.16 163.34,70.25 166.45,68.34 169.33,65.85 172.22,63.37 174.17,61.06 176.13,58.76 177.72,56.14 179.32,53.52 179.78,50.85 180.23,48.18 184.43,45.72 188.63,43.25 188.88,46.32 189.13,49.38 189.65,52.16 190.18,54.94 191.06,58.25 191.95,61.57 193.73,65.22 195.52,68.88 198.04,72.77 200.56,76.66 203.25,79.85 205.93,83.04 207.46,84.67 208.99,86.30 211.94,88.46 214.89,90.63 217.95,92.06 221.01,93.48 223.18,94.36 225.36,95.24 227.49,95.75 229.62,96.27 232.64,96.65 235.67,97.04 238.14,97.14 240.61,97.24 244.14,96.73 247.66,96.21 249.91,95.29 252.17,94.37 255.55,93.14 258.93,91.92 262.90,90.29 266.88,88.66 269.48,86.91 272.08,85.15 275.41,83.01 278.73,80.87 283.92,77.23 289.12,73.60 291.81,71.42 294.50,69.25 298.17,65.46 301.84,61.67 303.71,59.70 305.58,57.74 308.36,54.69 311.14,51.63 312.42,49.63 313.70,47.62 315.75,44.78 317.80,41.95 319.82,38.66 321.84,35.37 322.83,33.25 323.82,31.13 324.80,27.57 325.79,24.02 325.81,21.71 325.83,19.40 325.36,17.84 324.89,16.27 324.14,15.75 323.38,15.23 322.84,14.49 322.29,13.76 322.00,12.88 321.72,12.01 321.73,11.10 321.73,10.18 322.04,9.31 322.34,8.45 322.90,7.72 323.46,7.00 324.22,6.49 324.99,5.98 325.87,5.75 326.76,5.51 327.67,5.57 328.59,5.63 329.43,5.97 330.28,6.32 330.98,6.92 331.67,7.52 332.13,8.31 332.60,9.10 332.79,10.00 332.98,10.89 332.87,11.80 332.76,12.71 332.37,13.54 331.98,14.37 331.34,15.03 330.70,15.69 329.89,16.11 329.08,16.53 328.17,16.67 327.26,16.81 326.36,16.66 325.46,16.50 324.65,16.06 323.85,15.63 323.22,14.95 322.60,14.28 322.22,13.45 321.84,12.61 321.75,11.70 321.66,10.79 321.87,9.89 322.07,9.00 322.55,8.22 323.03,7.44 323.74,6.85 324.44,6.27 325.30,5.93 326.15,5.60 327.07,5.56 327.98,5.52 328.86,5.77 329.74,6.03 329.74,6.03 329.74,6.03 331.93,7.68 334.11,9.33 335.13,11.41 336.14,13.48 336.13,15.67 336.12,17.85 335.73,20.49 335.35,23.13 334.10,26.83 332.84,30.52 331.81,32.75 330.78,34.98 329.46,37.00 328.15,39.01 326.12,42.75 324.08,46.49 322.00,49.37 319.91,52.25 318.22,54.22 316.54,56.20 313.69,59.80 310.84,63.41 308.95,64.93 307.06,66.45 303.21,70.86 299.37,75.28 296.58,77.53 293.78,79.78 288.76,83.84 283.75,87.90 280.64,90.35 277.53,92.80 274.45,95.09 271.38,97.37 267.43,99.82 263.48,102.28 260.37,103.90 257.26,105.52 253.72,107.24 250.19,108.96 247.88,109.43 245.56,109.91 240.92,110.19 236.27,110.46 233.65,109.99 231.03,109.53 228.14,109.06 225.24,108.60 223.00,107.93 220.75,107.25 218.16,106.07 215.58,104.89 212.73,103.46 209.89,102.03 207.35,100.04 204.81,98.06 202.53,96.42 200.26,94.78 198.58,93.08 196.91,91.38 194.97,89.38 193.04,87.38 190.27,83.60 187.49,79.81 185.46,77.19 183.43,74.57 182.46,72.66 181.49,70.75 180.05,68.23 178.61,65.71 177.61,62.39 176.60,59.07 175.74,55.57 174.89,52.08 174.88,49.61 174.88,47.14 174.95,44.93 175.02,42.71 175.94,40.00 176.85,37.29 182.48,36.29 188.12,35.28 189.73,36.73 191.35,38.17 192.47,40.68 193.60,43.19 193.61,45.99 193.63,48.78 193.34,51.42 193.06,54.06 191.83,57.06 190.59,60.05 188.85,62.84 187.10,65.64 185.69,67.72 184.28,69.80 182.72,71.37 181.16,72.93 179.51,74.52 177.87,76.11 175.99,77.76 174.11,79.41 172.10,80.86 170.10,82.32 166.57,84.35 163.05,86.38 161.03,87.40 159.01,88.43 155.94,89.43 152.88,90.44 149.18,91.39 145.48,92.34 142.47,92.76 139.46,93.18 137.33,93.17 135.20,93.17 132.50,93.13 129.79,93.09 127.57,92.85 125.35,92.61 122.95,91.49 120.56,90.36 118.81,86.68 117.06,82.99 117.35,80.53 117.65,78.06 119.27,74.66 120.89,71.25 122.36,68.83 123.84,66.41 126.29,63.75 128.75,61.09 130.47,59.56 132.19,58.03 134.88,55.99 137.57,53.96 139.80,52.13 142.03,50.30 143.73,48.71 145.44,47.11 147.66,46.10 149.88,45.09 149.31,43.00 148.74,40.91 146.67,39.47 144.60,38.04 141.80,36.29 139.00,34.54 136.17,33.18 133.34,31.82 130.20,30.98 127.06,30.14 124.41,30.08 121.75,30.03 119.50,29.93 117.25,29.83 114.46,28.93 111.68,28.04 109.68,25.83 107.69,23.61 111.16,24.03 114.63,24.44 113.30,26.35 111.97,28.25 110.35,30.47 108.74,32.69 107.17,35.68 105.60,38.67 104.18,41.85 102.77,45.03 102.01,47.38 101.25,49.74 99.55,53.95 97.84,58.16 96.99,60.56 96.14,62.96 95.15,65.11 94.15,67.25 92.94,69.93 91.72,72.60 89.35,76.42 86.99,80.23 85.04,82.77 83.09,85.31 81.80,87.36 80.51,89.40 78.33,91.48 76.14,93.57 73.91,95.07 71.67,96.57 69.57,97.21 67.47,97.84 64.61,97.19 61.74,96.54 58.93,94.94 56.12,93.33 54.66,90.55 53.20,87.76 52.79,85.07 52.39,82.37 52.44,80.04 52.49,77.71 52.53,74.58 52.58,71.45 52.63,67.34 52.68,63.23 53.20,60.57 53.72,57.92 54.09,54.26 54.47,50.61 54.51,47.01 54.56,43.41 54.89,39.69 55.22,35.96 56.74,34.04 58.26,32.11 61.59,32.71 64.92,33.32 63.31,35.13 61.69,36.95 59.93,40.42 58.16,43.89 55.99,48.02 53.82,52.15 52.53,54.37 51.23,56.59 49.93,58.43 48.63,60.27 46.28,63.37 43.93,66.48 42.56,68.67 41.20,70.87 39.08,73.02 36.95,75.16 35.04,76.99 33.14,78.81 31.23,80.31 29.32,81.80 27.22,82.35 25.11,82.91 22.66,82.79 20.20,82.67 17.47,82.04 14.74,81.41 12.49,80.11 10.24,78.81 8.23,77.13 6.22,75.46 4.45,73.43 2.68,71.39 1.04,68.50 -0.59,65.60 -1.53,62.29 -2.47,58.97 -3.00,55.95 -3.53,52.93 -4.00,49.41 -4.47,45.89 -4.94,41.62 -5.42,37.35 -5.72,35.10 -6.02,32.85 -5.99,29.06 -5.96,25.27 -5.88,21.80 -5.80,18.33 -5.70,15.00 -5.59,11.67 -5.45,8.42 -5.30,5.17 -5.30,2.58 -5.29,0 -5.22,-0.63 -5.14,-1.26 -4.91,-1.86 -4.69,-2.46 -4.32,-2.98 -3.96,-3.51 -3.48,-3.93 -3.00,-4.36 -2.44,-4.65 -1.87,-4.95 -1.25,-5.10 -0.63,-5.26 0.00,-5.26 0.63,-5.26 1.25,-5.10 1.87,-4.95 2.44,-4.65 3.01,-4.36 3.48,-3.93 3.96,-3.51 4.32,-2.98 4.69,-2.46 4.91,-1.86 5.14,-1.26 5.22,-0.63 5.29,0.00 5.29,0.00 L 5.29,0 Z"></path></g></svg>