<svg version="1.1" xmlns="http://www.w3.org/2000/svg" viewBox="0 0 493 176" width="493" height="176" class="excalidraw-svg">
  <!-- svg-source:excalidraw -->
  
  <defs>
    <style class="style-fonts">
      @font-face {
        font-family: "Virgil";
        src: url("https://excalidraw.com/Virgil.woff2");
      }
      @font-face {
        font-family: "Cascadia";
        src: url("https://excalidraw.com/Cascadia.woff2");
      }
      @font-face {
        font-family: "Assistant";
        src: url("https://excalidraw.com/Assistant-Regular.woff2");
      }
    </style>
    
  </defs>
  <rect x="0" y="0" width="493" height="176" fill="#ffffff"></rect><g transform="translate(10 10) rotate(0 6.5 77.5)" stroke="none"><path fill="#1e1e1e" d="M 4.31,-2.87 Q 4.31,-2.87 5.52,-1.16 6.73,0.53 8.14,3.79 9.56,7.05 10.68,10.48 11.81,13.91 12.54,17.51 13.28,21.10 13.67,24.03 14.06,26.96 14.24,29.84 14.42,32.71 14.74,35.06 15.06,37.41 15.43,40.20 15.81,42.98 15.92,46.46 16.02,49.94 16.04,53.12 16.05,56.30 15.93,59.95 15.80,63.61 15.98,66.98 16.16,70.36 16.15,74.29 16.14,78.22 16.18,81.60 16.22,84.98 16.15,88.73 16.09,92.47 16.39,95.60 16.69,98.74 16.90,101.67 17.11,104.60 17.06,108.46 17.01,112.33 17.09,115.39 17.17,118.45 17.23,121.48 17.29,124.51 17.37,127.24 17.45,129.96 17.69,133.71 17.92,137.45 18.11,140.58 18.30,143.72 18.46,146.05 18.61,148.37 18.02,152.83 17.44,157.28 16.88,158.05 16.32,158.82 15.54,159.38 14.76,159.93 13.85,160.20 12.94,160.48 11.98,160.44 11.03,160.41 10.14,160.08 9.25,159.75 8.51,159.14 7.77,158.54 7.26,157.74 6.75,156.93 6.53,156.01 6.30,155.08 6.39,154.13 6.47,153.18 6.85,152.31 7.23,151.44 7.87,150.73 8.51,150.02 9.34,149.56 10.18,149.10 11.11,148.92 12.05,148.75 12.99,148.88 13.94,149.02 14.79,149.44 15.64,149.87 16.31,150.55 16.98,151.23 17.40,152.08 17.82,152.94 17.94,153.89 18.06,154.83 17.88,155.77 17.69,156.70 17.22,157.53 16.74,158.35 16.03,158.99 15.32,159.62 14.44,159.99 13.56,160.36 12.61,160.43 11.66,160.50 10.74,160.27 9.82,160.03 9.02,159.51 8.22,159.00 7.62,158.25 7.03,157.50 6.71,156.61 6.38,155.71 6.36,154.76 6.34,153.81 6.63,152.90 6.92,151.99 6.91,151.99 6.91,151.99 7.15,150.18 7.38,148.37 7.53,146.05 7.69,143.72 7.88,140.59 8.07,137.45 8.30,133.72 8.53,129.98 8.60,127.26 8.67,124.54 8.71,121.53 8.75,118.52 8.79,115.48 8.82,112.44 8.66,108.71 8.51,104.98 8.46,102.23 8.42,99.48 8.13,96.00 7.83,92.52 7.72,88.82 7.61,85.12 7.54,81.82 7.47,78.51 7.20,74.83 6.94,71.14 6.51,67.42 6.09,63.70 5.89,60.13 5.70,56.57 5.55,53.57 5.41,50.57 5.14,47.64 4.86,44.71 4.35,41.87 3.84,39.03 3.43,36.29 3.01,33.54 2.81,31.17 2.60,28.81 2.10,26.17 1.60,23.54 1.15,20.44 0.71,17.33 -0.15,14.04 -1.02,10.75 -1.58,8.55 -2.13,6.36 -3.22,4.61 -4.31,2.87 -4.59,2.31 -4.87,1.75 -5.01,1.15 -5.15,0.54 -5.14,-0.08 -5.13,-0.70 -4.97,-1.31 -4.81,-1.91 -4.51,-2.46 -4.21,-3.01 -3.79,-3.47 -3.37,-3.93 -2.85,-4.27 -2.33,-4.62 -1.74,-4.83 -1.15,-5.05 -0.53,-5.11 0.08,-5.18 0.70,-5.09 1.32,-5.00 1.90,-4.77 2.48,-4.54 2.99,-4.18 3.49,-3.82 3.90,-3.34 4.31,-2.87 4.31,-2.87 L 4.31,-2.87 Z"></path></g><g transform="translate(15 105) rotate(0 40 13)" stroke="none"><path fill="#1e1e1e" d="M -5.15,-1.03 Q -5.15,-1.03 -4.94,-2.50 -4.73,-3.96 -3.56,-6.57 -2.38,-9.18 -0.18,-12.47 2.01,-15.76 3.53,-17.79 5.05,-19.81 7.01,-21.92 8.96,-24.03 11.39,-26.25 13.81,-28.46 16.49,-30.68 19.17,-32.89 21.73,-34.37 24.30,-35.85 26.79,-36.64 29.28,-37.42 31.68,-37.62 34.08,-37.82 37.26,-37.88 40.45,-37.93 44.45,-36.35 48.45,-34.78 50.82,-32.89 53.20,-30.99 54.85,-29.49 56.50,-27.98 57.99,-26.21 59.48,-24.45 61.93,-21.02 64.38,-17.59 66.97,-13.13 69.56,-8.66 71.79,-4.31 74.01,0.04 74.99,2.12 75.97,4.21 77.00,7.10 78.03,9.99 78.78,12.02 79.52,14.05 80.35,16.28 81.19,18.51 82.32,23.23 83.45,27.95 84.46,31.68 85.46,35.41 85.75,38.96 86.04,42.50 86.16,44.91 86.27,47.32 86.34,49.84 86.41,52.36 84.97,55.96 83.54,59.56 83.20,58.71 82.87,57.86 82.27,58.38 81.67,58.90 80.96,59.26 80.25,59.62 79.48,59.80 78.71,59.97 77.92,59.96 77.13,59.95 76.36,59.75 75.59,59.56 74.90,59.18 74.20,58.80 73.62,58.27 73.03,57.74 72.59,57.08 72.15,56.42 71.88,55.68 71.60,54.93 71.52,54.14 71.43,53.36 71.54,52.57 71.64,51.79 71.94,51.05 72.23,50.31 72.68,49.67 73.14,49.02 72.44,50.24 71.74,51.46 72.22,50.51 72.70,49.56 73.46,48.82 74.21,48.07 75.17,47.61 76.13,47.15 77.18,47.01 78.24,46.88 79.28,47.09 80.32,47.29 81.24,47.83 82.16,48.36 82.87,49.15 83.57,49.95 83.98,50.93 84.39,51.91 84.47,52.97 84.55,54.03 84.28,55.06 84.02,56.09 83.44,56.98 82.86,57.87 82.02,58.53 81.19,59.19 80.19,59.55 79.19,59.91 78.12,59.93 77.06,59.95 76.05,59.62 75.03,59.30 74.18,58.68 73.32,58.05 72.71,57.18 72.09,56.31 71.79,55.29 71.49,54.27 71.52,53.21 71.56,52.15 71.94,51.15 72.31,50.16 72.98,49.34 73.66,48.51 74.56,47.95 75.46,47.38 76.49,47.14 77.53,46.89 78.59,46.98 79.64,47.08 80.62,47.51 81.59,47.94 82.37,48.65 83.16,49.37 83.68,50.30 84.19,51.23 84.38,52.28 84.57,53.32 83.72,55.59 82.87,57.86 82.27,58.38 81.67,58.90 80.96,59.26 80.25,59.62 79.48,59.80 78.71,59.97 77.92,59.96 77.13,59.95 76.36,59.76 75.60,59.56 74.90,59.18 74.20,58.80 73.62,58.27 73.03,57.74 72.59,57.08 72.15,56.42 71.88,55.68 71.60,54.93 71.52,54.15 71.43,53.36 71.54,52.57 71.64,51.79 71.93,51.05 72.23,50.31 72.68,49.67 73.14,49.02 73.39,49.54 73.63,50.05 73.69,47.67 73.75,45.29 73.76,42.69 73.77,40.09 73.56,37.42 73.35,34.76 72.53,32.12 71.71,29.49 70.95,26.12 70.20,22.75 68.59,18.51 66.97,14.26 65.98,11.91 64.98,9.57 63.91,7.45 62.84,5.33 61.88,3.40 60.91,1.47 59.68,-0.49 58.45,-2.46 56.08,-6.04 53.71,-9.63 51.37,-12.66 49.03,-15.68 47.01,-17.74 44.98,-19.79 42.66,-21.92 40.34,-24.05 37.41,-24.06 34.47,-24.07 31.58,-23.81 28.69,-23.56 26.21,-21.93 23.73,-20.30 20.95,-17.68 18.17,-15.05 15.77,-12.67 13.36,-10.29 11.41,-8.54 9.46,-6.79 7.67,-4.28 5.88,-1.78 5.51,-0.37 5.15,1.03 4.95,1.63 4.75,2.23 4.42,2.77 4.08,3.30 3.62,3.74 3.17,4.18 2.62,4.50 2.07,4.82 1.47,5.00 0.86,5.18 0.23,5.21 -0.40,5.23 -1.02,5.11 -1.64,4.99 -2.21,4.72 -2.79,4.45 -3.28,4.05 -3.77,3.65 -4.15,3.15 -4.54,2.64 -4.79,2.06 -5.04,1.48 -5.14,0.85 -5.24,0.23 -5.20,-0.39 -5.15,-1.03 -5.15,-1.03 L -5.15,-1.03 Z"></path></g><g transform="translate(131 110) rotate(0 19 7.5)" stroke="none"><path fill="#1e1e1e" d="M 4.23,-3.17 Q 4.23,-3.17 5.16,-2.07 6.09,-0.97 8.15,0.23 10.21,1.43 12.94,2.03 15.68,2.63 19.52,2.97 23.37,3.32 25.52,3.31 27.67,3.30 30.72,2.88 33.77,2.45 34.34,-0.07 34.92,-2.59 34.93,-4.97 34.95,-7.35 34.73,-10.37 34.50,-13.39 33.45,-16.24 32.40,-19.08 29.81,-19.39 27.22,-19.69 24.72,-19.26 22.22,-18.83 19.35,-16.90 16.49,-14.97 14.82,-13.22 13.15,-11.48 11.56,-8.99 9.96,-6.51 8.73,-4.01 7.50,-1.51 6.83,0.96 6.17,3.44 5.19,7.13 4.22,10.82 3.64,12.95 3.06,15.09 3.04,17.36 3.03,19.63 3.48,22.22 3.93,24.82 5.21,26.55 6.48,28.29 8.71,30.09 10.94,31.89 13.52,32.81 16.11,33.72 18.86,34.21 21.62,34.70 24.24,34.73 26.86,34.76 28.45,33.74 30.04,32.73 30.92,31.94 31.79,31.14 32.88,30.67 33.96,30.20 35.14,30.10 36.32,30.00 37.47,30.28 38.62,30.56 39.62,31.20 40.62,31.83 41.37,32.75 42.11,33.67 42.53,34.78 42.94,35.89 42.97,37.07 43.01,38.25 42.67,39.39 42.32,40.52 41.64,41.48 40.95,42.45 39.99,43.14 39.03,43.84 37.90,44.19 36.77,44.54 35.59,44.51 34.40,44.48 33.29,44.08 32.18,43.68 31.25,42.94 30.33,42.20 29.69,41.20 29.05,40.21 28.76,39.06 28.47,37.91 28.56,36.73 28.65,35.55 29.11,34.46 29.58,33.37 30.37,32.49 31.15,31.61 32.18,31.02 33.21,30.43 34.37,30.21 35.53,29.98 36.71,30.14 37.88,30.29 38.94,30.81 40.00,31.34 40.84,32.17 41.68,33.00 42.21,34.06 42.74,35.12 42.91,36.29 43.07,37.47 42.85,38.63 42.63,39.79 42.05,40.83 41.48,41.86 41.48,41.86 41.48,41.86 37.95,44.88 34.42,47.91 32.37,48.54 30.33,49.17 27.74,49.18 25.15,49.19 23.00,49.14 20.84,49.10 18.01,48.73 15.17,48.35 12.58,47.52 9.98,46.68 6.96,45.48 3.93,44.28 1.48,42.34 -0.97,40.40 -3.25,38.31 -5.54,36.22 -7.34,33.22 -9.14,30.22 -10.08,26.90 -11.03,23.58 -10.98,20.44 -10.93,17.30 -10.72,14.77 -10.50,12.24 -9.81,9.70 -9.12,7.15 -8.47,4.43 -7.83,1.72 -7.01,-0.59 -6.19,-2.90 -4.76,-7.00 -3.32,-11.10 -1.73,-13.77 -0.14,-16.43 0.97,-18.45 2.09,-20.48 3.53,-22.23 4.96,-23.98 6.84,-25.53 8.71,-27.09 11.59,-29.19 14.46,-31.30 17.05,-32.38 19.64,-33.46 22.80,-33.88 25.95,-34.31 28.09,-34.28 30.22,-34.26 32.63,-34.11 35.04,-33.96 37.94,-32.55 40.83,-31.15 42.08,-29.27 43.34,-27.40 44.59,-24.78 45.85,-22.16 47.09,-19.03 48.33,-15.91 48.68,-11.59 49.03,-7.28 49.00,-4.73 48.98,-2.18 48.78,0.74 48.59,3.66 46.86,7.18 45.14,10.70 43.38,12.24 41.63,13.77 38.50,14.86 35.38,15.94 31.37,16.28 27.36,16.62 25.03,16.47 22.69,16.31 19.90,15.79 17.12,15.26 14.28,14.79 11.45,14.31 9.39,13.63 7.33,12.95 5.23,11.74 3.13,10.52 0.24,8.05 -2.64,5.57 -3.44,4.37 -4.23,3.17 -4.55,2.62 -4.87,2.07 -5.05,1.45 -5.23,0.84 -5.25,0.20 -5.28,-0.43 -5.15,-1.05 -5.02,-1.68 -4.75,-2.25 -4.47,-2.83 -4.07,-3.33 -3.66,-3.82 -3.15,-4.20 -2.64,-4.59 -2.05,-4.84 -1.46,-5.09 -0.83,-5.19 -0.20,-5.29 0.42,-5.24 1.06,-5.19 1.67,-4.98 2.27,-4.78 2.81,-4.44 3.35,-4.10 3.79,-3.63 4.23,-3.17 4.23,-3.17 L 4.23,-3.17 Z"></path></g><g transform="translate(236 75) rotate(0 0 44.5)" stroke="none"><path fill="#1e1e1e" d="M 5.36,0 Q 5.36,0 5.41,2.01 5.47,4.02 5.60,6.80 5.73,9.58 5.84,12.37 5.95,15.17 6.03,18.01 6.12,20.85 6.18,23.82 6.25,26.79 6.28,30.19 6.31,33.60 6.17,36.59 6.04,39.58 6.10,42.49 6.17,45.41 6.20,48.85 6.24,52.29 6.30,55.08 6.36,57.87 6.40,60.83 6.44,63.79 6.50,66.09 6.55,68.39 6.63,70.98 6.71,73.58 6.78,75.91 6.86,78.23 6.94,80.74 7.02,83.26 7.05,85.97 7.08,88.68 6.90,89.81 6.71,90.94 6.17,91.96 5.64,92.97 4.80,93.76 3.97,94.55 2.93,95.03 1.89,95.51 0.75,95.63 -0.38,95.76 -1.50,95.51 -2.62,95.27 -3.60,94.67 -4.58,94.08 -5.33,93.21 -6.07,92.33 -6.49,91.27 -6.92,90.20 -6.98,89.06 -7.04,87.91 -6.73,86.81 -6.43,85.70 -5.78,84.75 -5.14,83.81 -4.23,83.11 -3.31,82.42 -2.23,82.05 -1.14,81.69 0.00,81.69 1.14,81.69 2.23,82.05 3.32,82.42 4.23,83.11 5.14,83.81 5.78,84.76 6.43,85.71 6.73,86.81 7.04,87.92 6.98,89.06 6.92,90.21 6.49,91.27 6.07,92.34 5.32,93.21 4.58,94.08 3.60,94.67 2.62,95.27 1.50,95.51 0.38,95.76 -0.75,95.63 -1.89,95.51 -2.93,95.03 -3.97,94.55 -4.81,93.76 -5.64,92.97 -6.18,91.96 -6.71,90.94 -6.90,89.81 -7.08,88.68 -7.08,88.68 -7.08,88.68 -7.05,85.97 -7.02,83.26 -6.94,80.74 -6.86,78.23 -6.78,75.91 -6.71,73.58 -6.63,70.98 -6.55,68.39 -6.50,66.09 -6.44,63.79 -6.40,60.83 -6.36,57.87 -6.30,55.08 -6.24,52.29 -6.20,48.85 -6.17,45.41 -6.10,42.49 -6.04,39.58 -6.17,36.59 -6.31,33.60 -6.28,30.19 -6.25,26.79 -6.18,23.82 -6.12,20.85 -6.03,18.01 -5.95,15.17 -5.84,12.37 -5.73,9.58 -5.60,6.80 -5.47,4.02 -5.41,2.01 -5.36,0 -5.28,-0.64 -5.20,-1.28 -4.97,-1.88 -4.75,-2.49 -4.38,-3.02 -4.01,-3.55 -3.53,-3.98 -3.04,-4.41 -2.47,-4.71 -1.90,-5.01 -1.27,-5.17 -0.64,-5.32 0.00,-5.32 0.64,-5.32 1.27,-5.17 1.90,-5.01 2.47,-4.71 3.04,-4.41 3.53,-3.98 4.01,-3.55 4.38,-3.02 4.75,-2.49 4.97,-1.88 5.20,-1.28 5.28,-0.64 5.36,0.00 5.36,0.00 L 5.36,0 Z"></path></g><g transform="translate(299 66) rotate(0 6 49.5)" stroke="none"><path fill="#1e1e1e" d="M 5.30,-0.66 Q 5.30,-0.66 5.62,1.62 5.94,3.92 6.84,6.51 7.75,9.11 8.25,12.76 8.76,16.42 9.30,18.89 9.85,21.35 10.59,24.18 11.33,27.02 11.95,30.15 12.57,33.29 12.81,35.54 13.05,37.80 13.21,40.77 13.37,43.73 13.82,46.49 14.27,49.24 14.61,51.85 14.94,54.46 15.22,57.98 15.49,61.50 15.96,63.91 16.42,66.32 16.53,69.49 16.64,72.66 17.17,75.89 17.70,79.11 17.76,81.57 17.82,84.03 17.88,86.79 17.93,89.55 17.95,92.12 17.97,94.69 18.41,95.66 18.86,96.62 18.96,97.48 19.05,98.33 18.93,99.18 18.82,100.04 18.51,100.84 18.19,101.64 17.69,102.34 17.19,103.04 16.54,103.60 15.89,104.16 15.13,104.55 14.36,104.94 13.52,105.14 12.69,105.33 11.83,105.32 10.97,105.31 10.13,105.09 9.30,104.88 8.55,104.47 7.79,104.06 7.15,103.48 6.52,102.90 6.04,102.19 5.56,101.47 5.27,100.66 4.97,99.86 4.52,97.09 4.06,94.32 3.55,92.61 3.03,90.90 2.98,89.73 2.94,88.57 3.26,87.45 3.59,86.33 4.25,85.37 4.92,84.42 5.85,83.72 6.79,83.03 7.90,82.67 9.00,82.31 10.17,82.32 11.33,82.34 12.43,82.72 13.53,83.11 14.45,83.82 15.37,84.54 16.02,85.51 16.66,86.48 16.96,87.61 17.25,88.74 17.18,89.90 17.10,91.06 16.66,92.14 16.21,93.22 15.45,94.10 14.68,94.98 13.68,95.56 12.67,96.15 11.53,96.39 10.39,96.63 9.23,96.49 8.08,96.35 7.02,95.84 5.97,95.34 5.14,94.53 4.30,93.72 3.77,92.68 3.23,91.65 3.06,90.50 2.88,89.34 3.09,88.20 3.29,87.05 3.85,86.03 4.40,85.00 5.26,84.21 6.12,83.42 7.18,82.95 8.24,82.47 9.40,82.36 10.56,82.24 11.70,82.51 12.83,82.77 13.82,83.39 14.81,84.00 15.56,84.90 16.30,85.79 16.72,86.88 17.14,87.97 17.14,87.97 17.14,87.97 17.71,90.14 18.29,92.32 18.58,94.47 18.86,96.62 18.96,97.48 19.05,98.33 18.94,99.18 18.82,100.04 18.51,100.84 18.19,101.64 17.69,102.34 17.20,103.04 16.54,103.60 15.89,104.16 15.13,104.55 14.36,104.94 13.52,105.14 12.69,105.33 11.83,105.32 10.97,105.31 10.14,105.09 9.30,104.88 8.55,104.47 7.79,104.06 7.16,103.48 6.52,102.90 6.04,102.19 5.56,101.47 5.27,100.67 4.97,99.86 5.11,99.61 5.25,99.36 4.62,95.75 3.99,92.13 4.04,89.88 4.08,87.63 4.11,84.64 4.14,81.65 4.09,79.24 4.03,76.82 3.64,73.47 3.25,70.11 3.18,67.98 3.11,65.84 2.69,62.60 2.26,59.35 1.83,56.20 1.40,53.04 1.32,50.57 1.23,48.10 0.88,44.72 0.54,41.33 0.44,38.77 0.33,36.22 -0.13,33.23 -0.61,30.24 -1.43,26.40 -2.26,22.56 -2.63,19.84 -3.00,17.12 -3.06,14.75 -3.11,12.38 -3.95,8.83 -4.79,5.27 -5.05,2.97 -5.30,0.66 -5.31,0.01 -5.31,-0.62 -5.16,-1.25 -5.00,-1.87 -4.71,-2.45 -4.41,-3.02 -3.98,-3.50 -3.56,-3.99 -3.03,-4.35 -2.50,-4.72 -1.90,-4.95 -1.29,-5.18 -0.65,-5.26 -0.01,-5.34 0.62,-5.27 1.26,-5.19 1.86,-4.97 2.46,-4.74 3.00,-4.38 3.53,-4.01 3.96,-3.53 4.39,-3.05 4.69,-2.48 4.99,-1.91 5.15,-1.28 5.30,-0.66 5.30,-0.66 L 5.30,-0.66 Z"></path></g><g transform="translate(443 79) rotate(0 -14.5 39.5)" stroke="none"><path fill="#1e1e1e" d="M -4.61,2.30 Q -4.61,2.30 -5.22,1.24 -5.84,0.18 -8.09,-0.33 -10.35,-0.85 -13.31,-1.22 -16.27,-1.58 -19.67,-1.53 -23.07,-1.47 -25.67,-1.44 -28.26,-1.40 -31.06,-1.37 -33.86,-1.35 -36.77,-0.42 -39.68,0.50 -41.91,2.18 -44.14,3.87 -45.71,5.61 -47.28,7.36 -48.84,9.12 -50.40,10.87 -51.73,12.63 -53.07,14.39 -54.54,16.68 -56.01,18.97 -57.07,21.13 -58.14,23.29 -58.98,26.28 -59.82,29.27 -60.30,31.43 -60.78,33.60 -61.26,36.17 -61.73,38.74 -61.78,41.69 -61.82,44.64 -61.80,46.84 -61.77,49.03 -61.37,52.34 -60.96,55.64 -60.08,57.88 -59.20,60.12 -58.20,62.19 -57.20,64.26 -55.14,66.90 -53.09,69.54 -50.02,71.93 -46.95,74.31 -44.56,75.63 -42.17,76.94 -39.57,77.86 -36.97,78.77 -34.69,79.24 -32.40,79.70 -29.95,79.75 -27.50,79.80 -25.20,79.81 -22.91,79.83 -20.44,79.83 -17.98,79.84 -15.38,79.86 -12.78,79.87 -9.62,78.73 -6.46,77.58 -4.38,76.72 -2.30,75.87 0.01,75.26 2.33,74.64 5.79,73.54 9.24,72.43 12.41,71.39 15.57,70.35 18.55,68.88 21.53,67.41 24.17,65.80 26.80,64.18 28.08,62.36 29.36,60.54 30.14,58.37 30.92,56.19 31.42,53.68 31.93,51.16 32.35,47.57 32.77,43.98 32.89,41.74 33.01,39.49 33.03,37.07 33.05,34.65 33.07,31.91 33.08,29.16 32.24,26.46 31.40,23.76 30.18,21.93 28.95,20.10 27.69,18.34 26.43,16.58 24.00,15.38 21.57,14.18 18.91,12.79 16.26,11.40 13.24,10.39 10.22,9.39 7.36,8.75 4.49,8.11 1.97,7.24 -0.55,6.36 -3.81,5.75 -7.08,5.13 -12.09,4.11 -17.10,3.08 -20.98,2.40 -24.86,1.72 -27.37,1.57 -29.88,1.42 -31.80,1.39 -33.72,1.36 -34.73,1.18 -35.75,1.01 -36.65,0.51 -37.56,0.02 -38.26,-0.72 -38.96,-1.48 -39.38,-2.42 -39.80,-3.35 -39.90,-4.38 -40.00,-5.40 -39.77,-6.40 -39.54,-7.41 -39.00,-8.28 -38.46,-9.16 -37.67,-9.82 -36.88,-10.48 -35.92,-10.85 -34.96,-11.22 -33.93,-11.26 -32.90,-11.31 -31.91,-11.02 -30.92,-10.74 -30.08,-10.15 -29.23,-9.56 -28.62,-8.74 -28.00,-7.91 -27.68,-6.93 -27.37,-5.95 -27.38,-4.93 -27.39,-3.90 -27.73,-2.92 -28.07,-1.95 -28.70,-1.14 -29.33,-0.33 -30.19,0.23 -31.04,0.80 -32.04,1.06 -33.03,1.33 -34.06,1.26 -35.09,1.20 -36.04,0.81 -36.99,0.41 -37.77,-0.25 -38.55,-0.92 -39.07,-1.81 -39.59,-2.70 -39.80,-3.71 -40.01,-4.71 -39.89,-5.74 -39.77,-6.76 -39.32,-7.69 -38.88,-8.62 -38.17,-9.36 -37.45,-10.10 -36.54,-10.57 -35.62,-11.04 -34.60,-11.20 -33.59,-11.35 -33.59,-11.35 -33.59,-11.35 -31.29,-11.28 -29.00,-11.20 -25.81,-10.86 -22.61,-10.53 -18.48,-9.84 -14.35,-9.16 -11.87,-8.73 -9.39,-8.30 -4.90,-7.77 -0.41,-7.24 1.79,-6.82 4.01,-6.39 7.27,-5.64 10.54,-4.88 14.10,-3.88 17.67,-2.88 19.78,-2.24 21.89,-1.60 25.34,0.08 28.80,1.76 30.84,2.74 32.88,3.72 34.96,5.40 37.03,7.08 38.76,9.51 40.49,11.94 42.14,14.95 43.80,17.95 44.98,21.53 46.16,25.11 46.54,28.57 46.92,32.02 46.89,34.59 46.87,37.15 46.77,39.99 46.67,42.83 46.27,45.70 45.87,48.57 45.73,51.75 45.58,54.93 44.49,58.54 43.39,62.14 42.01,65.24 40.63,68.33 38.75,70.59 36.87,72.85 35.30,74.33 33.73,75.80 31.23,77.36 28.74,78.91 25.82,80.52 22.90,82.14 19.84,83.17 16.78,84.21 13.48,85.36 10.17,86.52 7.10,87.43 4.03,88.34 2.03,89.34 0.03,90.34 -2.02,90.87 -4.08,91.39 -6.29,92.38 -8.50,93.36 -10.61,93.74 -12.71,94.12 -15.35,94.13 -17.98,94.14 -20.45,94.15 -22.93,94.16 -25.29,94.15 -27.65,94.15 -30.17,94.10 -32.69,94.04 -35.27,93.62 -37.84,93.20 -39.91,92.65 -41.97,92.10 -44.31,91.34 -46.65,90.58 -48.80,89.46 -50.95,88.33 -53.50,86.74 -56.05,85.14 -58.06,83.68 -60.06,82.21 -62.88,79.12 -65.71,76.02 -68.73,71.99 -71.76,67.95 -72.53,65.70 -73.31,63.45 -74.30,60.31 -75.29,57.18 -75.77,54.61 -76.25,52.03 -76.22,49.87 -76.20,47.71 -76.17,45.18 -76.13,42.65 -75.99,39.97 -75.85,37.29 -75.40,34.93 -74.95,32.58 -74.34,29.05 -73.73,25.52 -72.69,23.24 -71.65,20.96 -70.72,18.21 -69.79,15.47 -68.49,12.71 -67.19,9.95 -65.86,8.09 -64.53,6.23 -63.12,4.40 -61.72,2.57 -59.62,0.03 -57.52,-2.50 -55.28,-4.64 -53.03,-6.79 -50.25,-8.82 -47.46,-10.86 -45.21,-11.87 -42.96,-12.89 -39.63,-13.78 -36.30,-14.67 -33.64,-14.65 -30.98,-14.62 -28.43,-14.58 -25.89,-14.54 -23.12,-14.49 -20.36,-14.45 -18.05,-14.34 -15.74,-14.24 -12.45,-13.60 -9.17,-12.96 -6.68,-12.27 -4.19,-11.58 -1.68,-10.24 0.82,-8.90 2.18,-6.84 3.54,-4.78 4.07,-3.54 4.61,-2.30 4.81,-1.71 5.02,-1.13 5.09,-0.51 5.15,0.10 5.06,0.71 4.97,1.33 4.74,1.90 4.51,2.48 4.15,2.98 3.79,3.49 3.31,3.89 2.84,4.29 2.28,4.57 1.73,4.85 1.12,4.99 0.52,5.12 -0.10,5.11 -0.72,5.10 -1.32,4.94 -1.92,4.78 -2.46,4.48 -3.01,4.18 -3.46,3.76 -3.92,3.34 -4.26,2.82 -4.61,2.30 -4.61,2.30 L -4.61,2.30 Z"></path></g></svg>